<svg width="1600" height="1000" viewBox="0 0 1600 1000" fill="none" xmlns="http://www.w3.org/2000/svg">
  <defs>
    <linearGradient id="bg" x1="0" y1="0" x2="1600" y2="1000" gradientUnits="userSpaceOnUse">
      <stop stop-color="#312E81"/>
      <stop offset="0.45" stop-color="#5B21B6"/>
      <stop offset="1" stop-color="#7C3AED"/>
    </linearGradient>
    <radialGradient id="glow1" cx="0" cy="0" r="1" gradientUnits="userSpaceOnUse" gradientTransform="translate(420 280) rotate(30) scale(420 280)">
      <stop stop-color="#C4B5FD" stop-opacity="0.9"/>
      <stop offset="1" stop-color="#C4B5FD" stop-opacity="0"/>
    </radialGradient>
    <radialGradient id="glow2" cx="0" cy="0" r="1" gradientUnits="userSpaceOnUse" gradientTransform="translate(1220 760) rotate(12) scale(520 300)">
      <stop stop-color="#A5B4FC" stop-opacity="0.75"/>
      <stop offset="1" stop-color="#A5B4FC" stop-opacity="0"/>
    </radialGradient>
  </defs>
  <rect width="1600" height="1000" fill="url(#bg)"/>
  <rect width="1600" height="1000" fill="url(#glow1)"/>
  <rect width="1600" height="1000" fill="url(#glow2)"/>
  <g opacity="0.22">
    <rect x="170" y="130" width="1240" height="740" rx="36" fill="white"/>
    <rect x="170" y="130" width="1240" height="120" rx="36" fill="#EDE9FE"/>
    <line x1="170" y1="252" x2="1410" y2="252" stroke="#C4B5FD" stroke-width="2"/>
    <line x1="170" y1="344" x2="1410" y2="344" stroke="#DDD6FE" stroke-width="2"/>
    <line x1="170" y1="436" x2="1410" y2="436" stroke="#DDD6FE" stroke-width="2"/>
    <line x1="170" y1="528" x2="1410" y2="528" stroke="#DDD6FE" stroke-width="2"/>
    <line x1="170" y1="620" x2="1410" y2="620" stroke="#DDD6FE" stroke-width="2"/>
    <line x1="170" y1="712" x2="1410" y2="712" stroke="#DDD6FE" stroke-width="2"/>
    <line x1="170" y1="804" x2="1410" y2="804" stroke="#DDD6FE" stroke-width="2"/>
    <line x1="347" y1="250" x2="347" y2="870" stroke="#DDD6FE" stroke-width="2"/>
    <line x1="524" y1="250" x2="524" y2="870" stroke="#DDD6FE" stroke-width="2"/>
    <line x1="701" y1="250" x2="701" y2="870" stroke="#DDD6FE" stroke-width="2"/>
    <line x1="878" y1="250" x2="878" y2="870" stroke="#DDD6FE" stroke-width="2"/>
    <line x1="1055" y1="250" x2="1055" y2="870" stroke="#DDD6FE" stroke-width="2"/>
    <line x1="1232" y1="250" x2="1232" y2="870" stroke="#DDD6FE" stroke-width="2"/>
  </g>
</svg>
